<svg id="visual" viewBox="0 0 2000 500" width="2000" height="500" xmlns="http://www.w3.org/2000/svg" xmlns:xlink="http://www.w3.org/1999/xlink" version="1.1"><path d="M0 346L47.7 353.7C95.3 361.3 190.7 376.7 285.8 390.7C381 404.7 476 417.3 571.2 412.2C666.3 407 761.7 384 857 367.5C952.3 351 1047.7 341 1143 353.7C1238.3 366.3 1333.7 401.7 1428.8 411.2C1524 420.7 1619 404.3 1714.2 385.3C1809.3 366.3 1904.7 344.7 1952.3 333.8L2000 323L2000 501L1952.3 501C1904.7 501 1809.3 501 1714.2 501C1619 501 1524 501 1428.8 501C1333.7 501 1238.3 501 1143 501C1047.7 501 952.3 501 857 501C761.7 501 666.3 501 571.2 501C476 501 381 501 285.8 501C190.7 501 95.3 501 47.7 501L0 501Z" fill="#00252e" stroke-linecap="round" stroke-linejoin="miter"></path></svg>