<svg id="visual" viewBox="0 0 2000 500" width="2000" height="500" xmlns="http://www.w3.org/2000/svg" xmlns:xlink="http://www.w3.org/1999/xlink" version="1.1"><path d="M0 178L47.7 164.8C95.3 151.7 190.7 125.3 285.8 123.8C381 122.3 476 145.7 571.2 159.2C666.3 172.7 761.7 176.3 857 161.3C952.3 146.3 1047.7 112.7 1143 110.8C1238.3 109 1333.7 139 1428.8 137.3C1524 135.7 1619 102.3 1714.2 97.2C1809.3 92 1904.7 115 1952.3 126.5L2000 138L2000 0L1952.3 0C1904.7 0 1809.3 0 1714.2 0C1619 0 1524 0 1428.8 0C1333.7 0 1238.3 0 1143 0C1047.7 0 952.3 0 857 0C761.7 0 666.3 0 571.2 0C476 0 381 0 285.8 0C190.7 0 95.3 0 47.7 0L0 0Z" fill="#edf7ff" stroke-linecap="round" stroke-linejoin="miter"></path></svg>