<svg id="visual" viewBox="0 0 2000 500" width="2000" height="500" xmlns="http://www.w3.org/2000/svg" xmlns:xlink="http://www.w3.org/1999/xlink" version="1.1"><path d="M0 82L47.7 97.8C95.3 113.7 190.7 145.3 285.8 146.2C381 147 476 117 571.2 112.2C666.3 107.3 761.7 127.7 857 145.2C952.3 162.7 1047.7 177.3 1143 183.7C1238.3 190 1333.7 188 1428.8 185.7C1524 183.3 1619 180.7 1714.2 174.8C1809.3 169 1904.7 160 1952.3 155.5L2000 151L2000 0L1952.3 0C1904.7 0 1809.3 0 1714.2 0C1619 0 1524 0 1428.8 0C1333.7 0 1238.3 0 1143 0C1047.7 0 952.3 0 857 0C761.7 0 666.3 0 571.2 0C476 0 381 0 285.8 0C190.7 0 95.3 0 47.7 0L0 0Z" fill="#edf7ff" stroke-linecap="round" stroke-linejoin="miter"></path></svg>