<svg id="visual" viewBox="0 0 2000 500" width="2000" height="500" xmlns="http://www.w3.org/2000/svg" xmlns:xlink="http://www.w3.org/1999/xlink" version="1.1"><path d="M0 353L47.7 356.3C95.3 359.7 190.7 366.3 285.8 379.3C381 392.3 476 411.7 571.2 402.7C666.3 393.7 761.7 356.3 857 342.8C952.3 329.3 1047.7 339.7 1143 353.8C1238.3 368 1333.7 386 1428.8 397C1524 408 1619 412 1714.2 404.5C1809.3 397 1904.7 378 1952.3 368.5L2000 359L2000 501L1952.3 501C1904.7 501 1809.3 501 1714.2 501C1619 501 1524 501 1428.8 501C1333.7 501 1238.3 501 1143 501C1047.7 501 952.3 501 857 501C761.7 501 666.3 501 571.2 501C476 501 381 501 285.8 501C190.7 501 95.3 501 47.7 501L0 501Z" fill="#edf7ff" stroke-linecap="round" stroke-linejoin="miter"></path></svg>