<svg id="visual" viewBox="0 0 2000 500" width="2000" height="500" xmlns="http://www.w3.org/2000/svg" xmlns:xlink="http://www.w3.org/1999/xlink" version="1.1"><path d="M0 307L47.7 305.5C95.3 304 190.7 301 285.8 323C381 345 476 392 571.2 392C666.3 392 761.7 345 857 336.8C952.3 328.7 1047.7 359.3 1143 372.7C1238.3 386 1333.7 382 1428.8 367C1524 352 1619 326 1714.2 338C1809.3 350 1904.7 400 1952.3 425L2000 450L2000 501L1952.3 501C1904.7 501 1809.3 501 1714.2 501C1619 501 1524 501 1428.8 501C1333.7 501 1238.3 501 1143 501C1047.7 501 952.3 501 857 501C761.7 501 666.3 501 571.2 501C476 501 381 501 285.8 501C190.7 501 95.3 501 47.7 501L0 501Z" fill="#edf7ff" stroke-linecap="round" stroke-linejoin="miter"></path></svg>